<svg width="30" height="30" viewBox="0 0 30 30" xmlns="http://www.w3.org/2000/svg" xmlns:xlink="http://www.w3.org/1999/xlink"><title>fb copy 2</title><defs><path id="a" d="M30 0v30H0V0h30z"/></defs><g fill="none" fill-rule="evenodd"><mask id="b" fill="#fff"><use xlink:href="#a"/></mask><path d="M25.047 25.047A14.116 14.116 0 0 1 15 29.21a14.116 14.116 0 0 1-10.047-4.162A14.116 14.116 0 0 1 .79 15c0-3.795 1.478-7.364 4.162-10.047A14.116 14.116 0 0 1 15 .79c3.795 0 7.364 1.478 10.047 4.162A14.116 14.116 0 0 1 29.21 15c0 3.795-1.478 7.364-4.162 10.047m.56-20.654A14.902 14.902 0 0 0 15 0C10.993 0 7.227 1.56 4.393 4.393A14.902 14.902 0 0 0 0 15c0 4.007 1.56 7.773 4.393 10.607A14.902 14.902 0 0 0 15 30c4.007 0 7.773-1.56 10.607-4.393A14.902 14.902 0 0 0 30 15c0-4.007-1.56-7.773-4.393-10.607" fill="#000" mask="url(#b)"/><path d="M18.15 12.62h-3.182v-1.663c0-.77.251-1.688 1.448-1.688h1.917V6.667h-2.792c-2.075 0-3 1.228-3 3.982v1.97h-1.708v2.609h1.707v8.939h2.428v-8.94h2.797l.385-2.607z" fill="#000"/></g></svg>