<svg xmlns="http://www.w3.org/2000/svg" width="30" height="30" viewBox="0 0 30 30">
    <g fill="none" fill-rule="evenodd" transform="translate(1 1)">
        <circle cx="13.998" cy="13.998" r="13.998" fill-rule="nonzero" stroke="#323232"/>
        <path fill="#323232" d="M8.5 9a.5.5 0 1 0 0-1 .5.5 0 0 0 0 1zM9 8a1 1 0 1 1 0 2 1 1 0 0 1 0-2zm5.5 9a3.5 3.5 0 1 0 0-7 3.5 3.5 0 0 0 0 7zm0-8a4.5 4.5 0 1 1 0 9 4.5 4.5 0 0 1 0-9zM7 19.688C7 20.412 7.588 21 8.313 21h11.374c.725 0 1.313-.588 1.313-1.313V8.313C21 7.588 20.412 7 19.687 7H8.313C7.588 7 7 7.588 7 8.313v11.374zM8.222 6h11.556A2.225 2.225 0 0 1 22 8.222v11.556A2.225 2.225 0 0 1 19.778 22H8.222A2.225 2.225 0 0 1 6 19.778V8.222A2.225 2.225 0 0 1 8.222 6z"/>
    </g>
</svg>
