<svg width="30" height="30" viewBox="0 0 30 30" xmlns="http://www.w3.org/2000/svg" xmlns:xlink="http://www.w3.org/1999/xlink"><title>F6FBE5B8-697C-4CBF-A173-64470F5F630D</title><defs><path id="a" d="M30 0v30H0V0h30z"/></defs><g fill="none" fill-rule="evenodd"><mask id="b" fill="#fff"><use xlink:href="#a"/></mask><path d="M25.047 25.047A14.116 14.116 0 0 1 15 29.21a14.116 14.116 0 0 1-10.047-4.162A14.116 14.116 0 0 1 .79 15c0-3.795 1.478-7.364 4.162-10.047A14.116 14.116 0 0 1 15 .79c3.795 0 7.364 1.478 10.047 4.162A14.116 14.116 0 0 1 29.21 15c0 3.795-1.478 7.364-4.162 10.047m.56-20.654A14.902 14.902 0 0 0 15 0C10.993 0 7.227 1.56 4.393 4.393A14.902 14.902 0 0 0 0 15c0 4.007 1.56 7.773 4.393 10.607A14.902 14.902 0 0 0 15 30c4.007 0 7.773-1.56 10.607-4.393A14.902 14.902 0 0 0 30 15c0-4.007-1.56-7.773-4.393-10.607" fill="#000" mask="url(#b)"/><path d="M21.416 12.004c0-.153-.007-.3-.013-.453a6.704 6.704 0 0 0 1.657-1.776 6.322 6.322 0 0 1-1.903.52 3.376 3.376 0 0 0 1.457-1.896 6.319 6.319 0 0 1-2.102.804c-.605-.685-1.463-1.125-2.415-1.138-1.83-.026-3.313 1.517-3.313 3.454 0 .273.025.538.085.797-2.754-.179-5.195-1.61-6.825-3.77a3.657 3.657 0 0 0-.453 1.769c0 1.23.586 2.321 1.477 2.96a3.179 3.179 0 0 1-1.504-.46v.048c0 1.715 1.145 3.146 2.662 3.486-.28.079-.572.12-.872.12a3.207 3.207 0 0 1-.625-.074c.419 1.41 1.644 2.436 3.093 2.468-1.138.939-2.56 1.504-4.111 1.497-.266 0-.532-.02-.792-.052a8.89 8.89 0 0 0 5.077 1.595c6.087 0 9.42-5.302 9.42-9.899" fill="#000"/></g></svg>